<svg xmlns="http://www.w3.org/2000/svg" width="24" height="24" viewBox="0 0 24 24">
  <path d="M12 2C6.48 2 2 6.48 2 12c0 2.76 1.12 5.26 2.93 7.07l1.42-1.42C4.9 15.37 4 13.79 4 12c0-4.41 3.59-8 8-8s8 3.59 8 8c0 1.79-.9 3.37-2.35 4.24l1.42 1.42C20.88 17.26 22 14.76 22 12c0-5.52-4.48-10-10-10zm0 16c-2.21 0-4-1.79-4-4 0-1.61.96-3.01 2.35-3.63L12 7.83l1.65.54C15.04 8.99 16 10.39 16 12c0 2.21-1.79 4-4 4zm0-14C7.37 4 4 7.37 4 12c0 1.37.52 2.63 1.37 3.54l1.42-1.42C6.9 13.37 6 12.21 6 12c0-3.31 2.69-6 6-6s6 2.69 6 6c0 .21-.9 1.37-2.79 2.12l1.42 1.42C19.48 14.63 20 13.37 20 12c0-4.63-3.37-8-8-8z"/>
</svg>